<svg width="258" height="188" viewBox="0 0 258 188" fill="none" xmlns="http://www.w3.org/2000/svg">
<path d="M43.2 119.92C38.592 119.92 34.976 118.736 32.352 116.368C29.792 114 28.224 110.96 27.648 107.248C19.52 106.544 13.408 103.408 9.312 97.84C5.216 92.208 3.168 84.656 3.168 75.184C3.168 64.88 5.472 56.88 10.08 51.184C14.752 45.424 21.952 42.544 31.68 42.544C41.344 42.544 48.48 45.424 53.088 51.184C57.76 56.88 60.096 64.88 60.096 75.184C60.096 84.592 58.048 92.112 53.952 97.744C49.92 103.312 43.872 106.48 35.808 107.248C36.128 109.296 36.896 110.736 38.112 111.568C39.392 112.4 41.12 112.816 43.296 112.816C44.896 112.816 46.176 112.656 47.136 112.336C48.096 112.08 48.96 111.6 49.728 110.896V108.304H57.6V113.968C54.72 117.936 49.92 119.92 43.2 119.92ZM31.68 100.336C43.968 100.336 50.112 91.952 50.112 75.184C50.112 58.16 43.968 49.648 31.68 49.648C19.328 49.648 13.152 58.16 13.152 75.184C13.152 91.952 19.328 100.336 31.68 100.336ZM87.6653 107.44C82.4173 107.44 78.4493 106.064 75.7613 103.312C73.0733 100.56 71.7293 96.624 71.7293 91.504V70.576C71.7293 69.36 71.4413 68.464 70.8653 67.888C70.3533 67.312 69.4893 67.024 68.2733 67.024H65.4893V59.92H82.0013V91.408C82.0013 97.616 85.0093 100.72 91.0253 100.72C94.2893 100.72 96.9133 99.76 98.8973 97.84C100.881 95.92 101.873 93.168 101.873 89.584V70.576C101.873 69.36 101.617 68.464 101.105 67.888C100.657 67.312 99.8573 67.024 98.7053 67.024H96.0173V59.92H112.049V95.344C112.049 96.56 112.337 97.456 112.913 98.032C113.489 98.544 114.385 98.8 115.601 98.8H117.521V106H105.329L104.753 99.76C102.705 102.448 100.305 104.4 97.5533 105.616C94.8653 106.832 91.5693 107.44 87.6653 107.44ZM144.545 107.44C137.249 107.44 131.393 105.424 126.977 101.392C122.625 97.296 120.449 91.344 120.449 83.536C120.449 75.216 122.465 68.976 126.497 64.816C130.593 60.592 136.385 58.48 143.873 58.48C151.105 58.48 156.577 60.528 160.289 64.624C164.001 68.72 165.857 74.256 165.857 81.232V85.648H130.625C130.625 90.832 131.873 94.672 134.369 97.168C136.929 99.6 140.353 100.816 144.641 100.816C147.073 100.816 149.121 100.656 150.785 100.336C152.449 99.952 153.953 99.344 155.297 98.512V95.056H164.225V101.776C161.537 103.696 158.625 105.104 155.489 106C152.417 106.96 148.769 107.44 144.545 107.44ZM155.969 79.408C155.969 70.064 151.905 65.392 143.777 65.392C139.489 65.392 136.225 66.64 133.985 69.136C131.745 71.632 130.625 75.056 130.625 79.408H155.969ZM172.199 98.896H174.599C175.879 98.896 176.775 98.64 177.287 98.128C177.863 97.552 178.151 96.624 178.151 95.344V70.576C178.151 69.36 177.895 68.464 177.383 67.888C176.871 67.312 176.007 67.024 174.791 67.024H172.775V59.92H186.023L187.367 65.2C188.647 63.216 190.279 61.84 192.263 61.072C194.311 60.304 196.711 59.92 199.463 59.92H203.879V67.024H198.503C194.855 67.024 192.263 67.856 190.727 69.52C189.191 71.12 188.423 73.616 188.423 77.008V95.344C188.423 96.624 188.679 97.552 189.191 98.128C189.703 98.64 190.567 98.896 191.783 98.896H194.183V106H172.199V98.896ZM232.544 125.2C224.736 125.2 218.528 122.992 213.92 118.576V111.664H222.848V115.12C224.96 117.424 228.064 118.576 232.16 118.576C235.488 118.576 237.984 117.616 239.648 115.696C241.376 113.776 242.24 110.96 242.24 107.248V100.432C240.448 102.224 238.464 103.536 236.288 104.368C234.112 105.136 231.584 105.52 228.704 105.52C223.2 105.52 218.912 104.112 215.84 101.296C212.768 98.416 211.232 94.384 211.232 89.2V70.576C211.232 69.36 210.944 68.464 210.368 67.888C209.792 67.312 208.896 67.024 207.68 67.024H204.896V59.92H221.408V89.488C221.408 95.76 224.512 98.896 230.72 98.896C234.048 98.896 236.704 97.968 238.688 96.112C240.672 94.192 241.664 91.44 241.664 87.856V70.576C241.664 69.296 241.408 68.4 240.896 67.888C240.448 67.312 239.616 67.024 238.4 67.024H235.904V59.92H251.936V105.136C251.936 111.216 250.176 116.08 246.656 119.728C243.2 123.376 238.496 125.2 232.544 125.2Z" fill="#F4EDE8"/>
<path d="M11.815 158.985H13.52C14.3633 158.985 15.005 158.838 15.445 158.545C15.9217 158.252 16.2883 157.738 16.545 157.005L27.05 127.415H32.605L43 157.005C43.2567 157.738 43.6233 158.252 44.1 158.545C44.5767 158.838 45.2367 158.985 46.08 158.985H47.73V163H35.19V158.985H37.94L35.52 151.945H24.08L21.66 158.985H24.41V163H11.815V158.985ZM34.42 148.48L29.855 135.06L25.18 148.48H34.42ZM59.3655 163.825C56.3588 163.825 54.0855 163.037 52.5455 161.46C51.0055 159.883 50.2355 157.628 50.2355 154.695V142.705C50.2355 142.008 50.0705 141.495 49.7405 141.165C49.4472 140.835 48.9522 140.67 48.2555 140.67H46.6605V136.6H56.1205V154.64C56.1205 158.197 57.8438 159.975 61.2905 159.975C63.1605 159.975 64.6638 159.425 65.8005 158.325C66.9372 157.225 67.5055 155.648 67.5055 153.595V142.705C67.5055 142.008 67.3588 141.495 67.0655 141.165C66.8088 140.835 66.3505 140.67 65.6905 140.67H64.1505V136.6H73.3355V156.895C73.3355 157.592 73.5005 158.105 73.8305 158.435C74.1605 158.728 74.6738 158.875 75.3705 158.875H76.4705V163H69.4855L69.1555 159.425C67.9822 160.965 66.6072 162.083 65.0305 162.78C63.4905 163.477 61.6022 163.825 59.3655 163.825ZM91.0945 163.825C87.4645 163.825 84.6228 162.652 82.5695 160.305C80.5528 157.958 79.5445 154.603 79.5445 150.24C79.5445 145.657 80.5528 142.1 82.5695 139.57C84.5862 137.04 87.5012 135.775 91.3145 135.775C93.5512 135.775 95.3295 136.05 96.6495 136.6C98.0062 137.15 99.1245 138.067 100.004 139.35V133.025C100.004 132.145 99.8578 131.522 99.5645 131.155C99.2712 130.788 98.7028 130.605 97.8595 130.605H96.9245V126.59H105.669V157.115C105.669 157.922 105.798 158.49 106.054 158.82C106.311 159.113 106.788 159.26 107.484 159.26H108.584V163H101.214L100.719 159.15C99.6195 160.8 98.3178 161.992 96.8145 162.725C95.3112 163.458 93.4045 163.825 91.0945 163.825ZM92.4145 159.535C94.7612 159.535 96.5945 158.783 97.9145 157.28C99.2345 155.74 99.8945 153.687 99.8945 151.12V148.315C99.8945 145.638 99.2528 143.585 97.9695 142.155C96.7228 140.725 94.9445 140.01 92.6345 140.01C90.0312 140.01 88.1428 140.817 86.9695 142.43C85.8328 144.043 85.2645 146.628 85.2645 150.185C85.2645 153.558 85.8145 155.96 86.9145 157.39C88.0145 158.82 89.8478 159.535 92.4145 159.535ZM114.579 127.36H120.794V132.42H114.579V127.36ZM111.114 158.93H112.709C113.442 158.93 113.955 158.765 114.249 158.435C114.579 158.105 114.744 157.573 114.744 156.84V142.705C114.744 142.008 114.579 141.513 114.249 141.22C113.955 140.89 113.442 140.725 112.709 140.725H111.114V136.6H120.629V156.895C120.629 157.592 120.794 158.105 121.124 158.435C121.454 158.765 121.967 158.93 122.664 158.93H124.259V163H111.114V158.93ZM141.152 163.825C136.972 163.825 133.617 162.67 131.087 160.36C128.594 158.013 127.347 154.603 127.347 150.13C127.347 145.363 128.502 141.788 130.812 139.405C133.159 136.985 136.477 135.775 140.767 135.775C144.911 135.775 148.046 136.948 150.172 139.295C152.299 141.642 153.362 144.813 153.362 148.81V151.34H133.177C133.177 154.31 133.892 156.51 135.322 157.94C136.789 159.333 138.751 160.03 141.207 160.03C142.601 160.03 143.774 159.938 144.727 159.755C145.681 159.535 146.542 159.187 147.312 158.71V156.73H152.427V160.58C150.887 161.68 149.219 162.487 147.422 163C145.662 163.55 143.572 163.825 141.152 163.825ZM147.697 147.765C147.697 142.412 145.369 139.735 140.712 139.735C138.256 139.735 136.386 140.45 135.102 141.88C133.819 143.31 133.177 145.272 133.177 147.765H147.697ZM156.996 158.93H158.371C159.104 158.93 159.617 158.783 159.911 158.49C160.241 158.16 160.406 157.628 160.406 156.895V142.76C160.406 142.027 160.259 141.513 159.966 141.22C159.672 140.89 159.159 140.725 158.426 140.725H157.271V136.6H164.311L164.641 140.285C165.887 138.708 167.299 137.572 168.876 136.875C170.489 136.142 172.432 135.775 174.706 135.775C180.572 135.775 183.506 138.818 183.506 144.905V156.895C183.506 157.628 183.652 158.16 183.946 158.49C184.276 158.783 184.807 158.93 185.541 158.93H187.081V163H177.621V144.96C177.621 143.127 177.236 141.807 176.466 141C175.696 140.157 174.449 139.735 172.726 139.735C170.856 139.735 169.316 140.267 168.106 141.33C166.896 142.393 166.291 143.878 166.291 145.785V156.895C166.291 157.628 166.419 158.16 166.676 158.49C166.969 158.783 167.464 158.93 168.161 158.93H169.591V163H156.996V158.93ZM204.27 163.825C201.63 163.825 199.229 163.293 197.065 162.23C194.939 161.167 193.252 159.59 192.005 157.5C190.759 155.41 190.135 152.917 190.135 150.02C190.135 145.4 191.364 141.88 193.82 139.46C196.314 137.003 199.742 135.775 204.105 135.775C206.489 135.775 208.487 136.032 210.1 136.545C211.714 137.058 213.272 137.883 214.775 139.02V144.3H209.66V141.275C208.817 140.798 208.01 140.468 207.24 140.285C206.47 140.102 205.425 140.01 204.105 140.01C201.649 140.01 199.65 140.835 198.11 142.485C196.607 144.098 195.855 146.61 195.855 150.02C195.855 153.247 196.717 155.648 198.44 157.225C200.2 158.765 202.437 159.535 205.15 159.535C206.837 159.535 208.267 159.388 209.44 159.095C210.65 158.802 211.787 158.307 212.85 157.61L214.885 160.965C213.345 162.028 211.769 162.762 210.155 163.165C208.579 163.605 206.617 163.825 204.27 163.825ZM232.3 163.825C228.12 163.825 224.765 162.67 222.235 160.36C219.741 158.013 218.495 154.603 218.495 150.13C218.495 145.363 219.65 141.788 221.96 139.405C224.306 136.985 227.625 135.775 231.915 135.775C236.058 135.775 239.193 136.948 241.32 139.295C243.446 141.642 244.51 144.813 244.51 148.81V151.34H224.325C224.325 154.31 225.04 156.51 226.47 157.94C227.936 159.333 229.898 160.03 232.355 160.03C233.748 160.03 234.921 159.938 235.875 159.755C236.828 159.535 237.69 159.187 238.46 158.71V156.73H243.575V160.58C242.035 161.68 240.366 162.487 238.57 163C236.81 163.55 234.72 163.825 232.3 163.825ZM238.845 147.765C238.845 142.412 236.516 139.735 231.86 139.735C229.403 139.735 227.533 140.45 226.25 141.88C224.966 143.31 224.325 145.272 224.325 147.765H238.845Z" fill="#F4EDE8"/>
<line x1="66" y1="117.5" x2="206" y2="117.5" stroke="#FF9000" stroke-width="3"/>
</svg>
